<?xml version="1.0" encoding="UTF-8" standalone="no"?>
<!-- Created with Inkscape (http://www.inkscape.org/) -->

<svg
   xmlns:dc="http://purl.org/dc/elements/1.1/"
   xmlns:cc="http://creativecommons.org/ns#"
   xmlns:rdf="http://www.w3.org/1999/02/22-rdf-syntax-ns#"
   xmlns:svg="http://www.w3.org/2000/svg"
   xmlns="http://www.w3.org/2000/svg"
   xmlns:sodipodi="http://sodipodi.sourceforge.net/DTD/sodipodi-0.dtd"
   xmlns:inkscape="http://www.inkscape.org/namespaces/inkscape"
   width="153.76593"
   height="53.322159"
   id="svg2"
   version="1.1"
   inkscape:version="0.92.1 r15371"
   sodipodi:docname="sonialogo.svg"
   viewBox="0 0 144.15557 49.989526"
   inkscape:export-filename="C:\Users\raftol\Desktop\sonialogo.png"
   inkscape:export-xdpi="90"
   inkscape:export-ydpi="90">
  <defs
     id="defs4" />
  <sodipodi:namedview
     id="base"
     pagecolor="#ffffff"
     bordercolor="#666666"
     borderopacity="1.0"
     inkscape:pageopacity="0.0"
     inkscape:pageshadow="2"
     inkscape:zoom="1"
     inkscape:cx="340.04805"
     inkscape:cy="221.67785"
     inkscape:document-units="px"
     inkscape:current-layer="g4282"
     showgrid="false"
     inkscape:window-width="1600"
     inkscape:window-height="837"
     inkscape:window-x="-8"
     inkscape:window-y="-8"
     inkscape:window-maximized="1"
     fit-margin-top="0"
     fit-margin-left="0"
     fit-margin-right="0"
     fit-margin-bottom="0" />
  <metadata
     id="metadata7">
    <rdf:RDF>
      <cc:Work
         rdf:about="">
        <dc:format>image/svg+xml</dc:format>
        <dc:type
           rdf:resource="http://purl.org/dc/dcmitype/StillImage" />
        <dc:title></dc:title>
      </cc:Work>
    </rdf:RDF>
  </metadata>
  <g
     inkscape:label="Capa 1"
     inkscape:groupmode="layer"
     id="layer1"
     transform="translate(748.46138,-1139.0066)">
    <flowRoot
       xml:space="preserve"
       id="flowRoot3264"
       style="font-style:normal;font-variant:normal;font-weight:normal;font-stretch:normal;line-height:0.01%;font-family:'32768 NO';-inkscape-font-specification:'32768 NO';letter-spacing:0px;word-spacing:0px;fill:#000000;fill-opacity:1;stroke:none"><flowRegion
         id="flowRegion3266"><rect
           id="rect3268"
           width="1302.8572"
           height="1277.1428"
           x="-142.85715"
           y="-124.78068" /></flowRegion><flowPara
         id="flowPara3270"
         style="font-size:40px;line-height:1.21000004"> </flowPara></flowRoot>    <g
       id="g4132"
       transform="matrix(0.96576064,0,0,0.96576064,13.910056,16.79917)">
      <g
         transform="matrix(0.69325153,0,0,0.69325153,158.79633,165.72021)"
         id="g3272">
        <g
           id="g3051"
           transform="matrix(1.5042517,0,0,1.5042517,-149.3641,170.92916)">
          <g
             id="g4079"
             transform="matrix(0.54993978,0,0,0.54993978,-1372.2541,110.64603)">
            <g
               id="g4322"
               transform="translate(-12.036848,-228.7001)">
              <g
                 id="g4282">
                <g
                   id="g4612"
                   transform="matrix(0.10874923,0,0,0.10874923,921.99569,1460.8057)">
                  <flowRoot
                     transform="matrix(1.8055271,0,0,1.8055271,2385.8637,-366.39008)"
                     style="font-style:normal;font-variant:normal;font-weight:normal;font-stretch:normal;line-height:0.01%;font-family:'32768 NO';-inkscape-font-specification:'32768 NO';letter-spacing:0px;word-spacing:0px;fill:#000000;fill-opacity:1;stroke:none"
                     id="flowRoot3237"
                     xml:space="preserve"><flowRegion
                       id="flowRegion3239"><rect
                         y="663.79077"
                         x="42.857143"
                         height="262.85715"
                         width="968.57141"
                         id="rect3241" /></flowRegion><flowPara
                       style="font-size:40px;line-height:1.21000004;fill:#d7f4d7"
                       id="flowPara3243"> </flowPara></flowRoot>                  <path
                     sodipodi:nodetypes="ccaaacccc"
                     inkscape:connector-curvature="0"
                     id="path4210"
                     d="m 1680.4873,1437.1843 v 137.0845 c 0,0 50.2148,57.6031 82.9721,75.7571 46.9544,26.0222 101.4741,45.2355 155.1219,43.29 49.7947,-1.8059 101.0963,-20.2566 140.6919,-50.5049 34.9925,-26.7319 75.7572,-108.2245 75.7572,-108.2245 l -7.215,-97.402 c -42.1449,80.099 -127.7712,109.4699 -227.2716,122.6544 -138.8029,-12.1965 -163.1121,-74.0765 -220.0565,-122.6546 z"
                     style="fill:#00d4aa;stroke:#00d4aa;stroke-width:25.97389221;stroke-linecap:butt;stroke-linejoin:miter;stroke-miterlimit:4;stroke-dasharray:none;stroke-opacity:1" />
                  <path
                     sodipodi:nodetypes="acccaaaaaa"
                     inkscape:connector-curvature="0"
                     id="path4206"
                     d="m 1752.6369,1282.0625 c 26.9164,-27.839 104.6171,-50.5048 104.6171,-50.5048 l 54.1122,7.215 50.5049,-14.4299 c 0,0 79.7514,19.1784 109.4193,45.1995 26.5721,23.3057 47.1037,57.0218 52.9175,91.8849 6.1576,36.9253 2.6035,81.5436 -21.4351,110.241 -50.9418,60.8146 -143.0279,92.8183 -222.0373,85.6782 -76.5044,-6.9139 -173.7123,-46.8475 -196.6408,-120.1619 -16.8733,-53.9531 29.2485,-114.4814 68.5422,-155.122 z"
                     style="fill:#00d4aa;stroke:#00d4aa;stroke-width:25.97389221;stroke-linecap:butt;stroke-linejoin:miter;stroke-miterlimit:4;stroke-dasharray:none;stroke-opacity:1" />
                  <path
                     inkscape:connector-curvature="0"
                     id="path4212"
                     d="m 1878.8989,1260.4176 h 86.5797 l 25.2523,263.3464 -97.4021,10.8225 z"
                     style="fill:#999999;stroke:#808080;stroke-width:12.98694611;stroke-linecap:butt;stroke-linejoin:miter;stroke-miterlimit:4;stroke-dasharray:none;stroke-opacity:1" />
                  <path
                     sodipodi:nodetypes="ccccc"
                     inkscape:connector-curvature="0"
                     id="path4214"
                     d="m 1857.254,1271.2401 13.3805,-7.3462 26.3018,270.6926 -19.2181,2.3613 z"
                     style="fill:#999999;stroke:#808080;stroke-width:12.98694611;stroke-linecap:round;stroke-linejoin:miter;stroke-miterlimit:4;stroke-dasharray:none;stroke-opacity:1" />
                  <g
                     style="fill:#999999;stroke:#333333;stroke-width:18.05527115;stroke-miterlimit:4;stroke-dasharray:none"
                     id="g4220"
                     transform="matrix(0.71928837,0,0,0.71928837,-114.93507,292.98825)">
                    <path
                       sodipodi:nodetypes="aaaaaa"
                       style="fill:#999999;stroke:#333333;stroke-width:15.48368263;stroke-linecap:butt;stroke-linejoin:miter;stroke-miterlimit:4;stroke-dasharray:none;stroke-opacity:1"
                       d="m 2857.9537,1460.4286 c -20.5415,-2.5988 -43.4914,17.1598 -48.3335,35.3522 -3.4706,13.0397 6.1155,28.8451 18.1148,36.7632 11.0325,7.2801 28.6493,9.8061 40.7583,4.0846 13.152,-6.2141 22.0196,-21.9824 21.1614,-35.352 -1.0649,-16.5927 -13.4531,-38.5393 -31.701,-40.848 z"
                       id="path4218"
                       inkscape:connector-curvature="0" />
                  </g>
                  <path
                     inkscape:connector-curvature="0"
                     id="path4223"
                     d="m 1920.2656,1370.5435 30.916,-3.8463"
                     style="fill:none;stroke:#333333;stroke-width:11.13723278;stroke-linecap:butt;stroke-linejoin:miter;stroke-miterlimit:4;stroke-dasharray:none;stroke-opacity:1" />
                  <path
                     inkscape:connector-curvature="0"
                     id="path4225"
                     d="m 1936.2566,1354.1968 1.066,28.8472"
                     style="fill:none;stroke:#333333;stroke-width:11.13723278;stroke-linecap:butt;stroke-linejoin:miter;stroke-miterlimit:4;stroke-dasharray:none;stroke-opacity:1" />
                  <path
                     sodipodi:nodetypes="aaaaaaa"
                     inkscape:connector-curvature="0"
                     id="path4208"
                     d="m 1950.6586,1577.8763 c -25.0753,-1.2967 -59.3672,0.034 -72.1497,21.645 -8.765,14.819 -0.1169,37.2097 10.8224,50.5046 11.6375,14.1436 32.2128,22.5806 50.5048,21.645 24.7286,-1.2648 55.3215,-13.2563 64.9347,-36.0749 5.323,-12.635 -1.7702,-29.3847 -10.8224,-39.6822 -10.321,-11.7409 -27.6781,-17.2302 -43.2898,-18.0375 z"
                     style="fill:#008066;stroke:#008066;stroke-width:12.98694611;stroke-linecap:butt;stroke-linejoin:miter;stroke-miterlimit:4;stroke-dasharray:none;stroke-opacity:1" />
                  <path
                     sodipodi:nodetypes="caaaac"
                     inkscape:connector-curvature="0"
                     id="path4274"
                     d="m 1662.6148,1402.4386 c 0,0 55.1872,75.429 92.0506,102.6264 36.5999,27.003 78.8789,50.3035 123.6662,56.7752 39.5311,5.7122 80.7385,-4.2754 118.5839,-17.2046 38.5727,-13.1777 79.5071,-29.4895 106.7256,-60.2161 23.925,-27.0085 41.9425,-100.3206 41.9425,-100.3206"
                     style="opacity:1;fill:#ffffff;fill-opacity:0;stroke:#ffffff;stroke-width:5.63378334;stroke-linecap:round;stroke-linejoin:miter;stroke-miterlimit:4;stroke-dasharray:none;stroke-opacity:1" />
                  <path
                     style="fill:#00ccff;fill-opacity:1;stroke:none"
                     d="m 1205.9165,1718.1653 c -44.0159,-7.9052 -100.205,-32.6388 -110.4392,-76.1722 -12.4639,-53.0178 38.6749,-106.4575 79.0793,-142.9777 11.3222,-10.2337 27.5233,-22.5522 42.0938,-18.0112 37.4945,42.2854 89.4425,111.7594 144.9098,102.9756 63.6066,-12.7278 108.5383,-87.5574 123.016,-150.7887 10.2797,-44.8967 0.841,-102.171 -32.058,-134.4052 -50.4532,-49.4338 -136.8731,-37.2029 -207.0818,-44.9464 -47.7208,-5.2632 -103.6059,25.0452 -144.0279,-0.8592 -43.338,-27.7731 -74.3696,-89.2371 -65.345,-139.9136 16.8621,-94.6875 109.3086,-192.05278 204.8362,-203.20254 46.5587,-5.43422 92.6067,35.31614 119.9585,73.38346 16.4788,22.93478 36.9287,60.91038 18.844,82.60148 -21.7002,26.0276 -68.3318,2.2087 -101.5645,-4.4173 -14.342,-2.8596 -26.9477,-18.2788 -41.211,-15.0496 -27.1564,6.1483 -58.9541,31.8153 -58.4703,59.6551 0.4912,28.2698 36.1513,45.8369 61.4424,58.4767 26.5088,13.2484 87.6792,14.7137 87.6792,14.7137 120.1881,2.6149 263.2382,84.1958 301.2833,198.2334 28.788,86.29 -24.9006,195.685 -92.2486,256.832 -84.1964,76.4441 -218.7649,103.9749 -330.6962,83.8722 z"
                     id="path3999"
                     inkscape:connector-curvature="0"
                     sodipodi:nodetypes="aaaccaaaaaaaaaaaasaaa" />
                  <path
                     style="fill:#ff0066;fill-opacity:1;stroke:none"
                     d="m 2841.7727,1591.6543 c -2.3372,-26.7423 -6.1939,-74.8186 -8.5703,-106.8361 l -4.3209,-58.2136 42.5129,-17.2547 c 23.382,-9.4901 44.967,-14.7972 47.9667,-11.7936 2.9997,3.0036 5.5945,56.7275 5.7663,119.3865 0.2676,97.6187 -1.3722,113.9373 -11.4569,114.0093 -6.473,0.047 -24.342,2.1632 -39.7087,4.7043 l -27.9395,4.6202 z"
                     id="path4019"
                     inkscape:connector-curvature="0" />
                  <path
                     style="fill:#e9afc6;fill-opacity:1;stroke:none"
                     d="m 2996.3278,1572.2708 c 8.2301,-108.6698 113.5581,-214.7148 218.8283,-242.9115 27.6581,-7.4083 60.4781,7.3135 81.6969,26.5389 7.3056,6.6193 11.8591,27.0932 11.8591,27.0932 11.6247,-39.9301 -28.5172,-93.1085 -55.1911,-115.837 -15.5711,-12.6215 -38.1545,-12.336 -56.9594,-19.2741 -13.3824,-4.9374 -38.7941,-1.664 -39.73,-15.8974 -2.6045,-39.609 64.7697,-65.4787 103.8164,-58.336 63.3283,11.5845 96.2116,90.0092 123.9784,148.0926 19.4235,40.6307 20.9023,87.8204 26.1618,132.5469 4.4635,37.9575 1.9106,76.4376 4.4975,114.569 1.7065,25.1549 21.9501,54.7914 7.268,75.2881 -9.9107,13.8356 -32.7182,10.5291 -49.6963,11.708 -17.3865,1.2073 -36.5507,3.1087 -52.0604,-4.8409 -8.4306,-4.3212 -13.6712,-13.3834 -18.6594,-21.4373 -6.7677,-10.9269 -11.7038,-35.6219 -14.7607,-35.6219 -3.0568,0 -17.9745,21.4623 -29.0909,29.7611 -35.219,26.292 -73.759,51.74 -116.5985,61.5598 -23.6235,5.415 -51.5341,9.3196 -72.6636,-2.5521 -38.4257,-21.5896 -76.0246,-66.4998 -72.6961,-110.4494 z m 188.2679,-39.9954 c 14.8788,-8.7086 24.4806,-34.5578 15.5747,-49.3193 -11.1329,-18.4527 -45.2014,-22.7172 -63.6176,-11.524 -14.2306,8.6492 -23.1911,33.3927 -14.7321,47.7371 10.8583,18.413 44.3266,23.9042 62.775,13.1062 z"
                     id="path4031"
                     inkscape:connector-curvature="0"
                     sodipodi:nodetypes="aaaccaaaaaaaaaasaaaaaaaaa" />
                  <path
                     sodipodi:nodetypes="ccaaaccaaaaac"
                     style="fill:#ff0066;stroke:#ff0066;stroke-width:19.8586235;stroke-linecap:butt;stroke-linejoin:miter;stroke-miterlimit:4;stroke-dasharray:none;stroke-opacity:1"
                     d="m 2778.4776,1384.536 134.7549,-44.9183 c 0,0 19.6337,39.8838 23.6413,61.4672 7.0493,37.9651 -6.6996,77.8136 0,115.842 4.801,27.2516 23.5684,50.7644 28.3694,78.016 5.1956,29.4914 0,89.8366 0,89.8366 l -132.3908,9.4565 c 0,0 -3.2768,-12.171 -4.9152,-18.2565 -3.8779,-14.4035 -8.0047,-28.7423 -11.6336,-43.2106 -8.4637,-33.7448 -21.7449,-66.919 -23.6412,-101.6573 -1.0815,-19.8128 8.7435,-39.3295 7.0923,-59.103 -1.162,-13.9157 -8.4779,-26.632 -11.8206,-40.1901 -3.8475,-15.6057 -9.4565,-47.2825 -9.4565,-47.2825 z"
                     id="path4035"
                     inkscape:connector-curvature="0" />
                  <path
                     style="opacity:0.51999996;fill:#c87137;stroke:#c87137;stroke-width:19.8586235;stroke-linecap:butt;stroke-linejoin:miter;stroke-miterlimit:4;stroke-dasharray:none;stroke-opacity:1"
                     d="m 2777.8254,1363.8785 c 0,0 0.089,-64.5138 5.3475,-96.1947 3.8294,-23.0697 18.9459,-67.5495 18.9459,-67.5495 0,0 42.1973,45.4105 61.6954,69.4737 13.7478,16.9666 38.9021,52.7109 38.9021,52.7109 z"
                     id="path4037"
                     inkscape:connector-curvature="0"
                     sodipodi:nodetypes="cacacc" />
                  <path
                     sodipodi:nodetypes="cccccc"
                     inkscape:connector-curvature="0"
                     id="path4039"
                     d="m 2783.231,1242.8456 9.2703,-35.9325 6.6141,-21.1337 19.4819,24.0889 14.4344,16.6975 z"
                     style="fill:#ff0066;stroke:#ff0066;stroke-width:6.10028315;stroke-linecap:butt;stroke-linejoin:miter;stroke-miterlimit:4;stroke-dasharray:none;stroke-opacity:1" />
                  <g
                     transform="translate(31.345955,794.35648)"
                     id="g4185">
                    <path
                       sodipodi:nodetypes="aaaaaaaaaaaaasaa"
                       transform="matrix(0.99293118,0,0,0.99293118,-849.05214,-298.47936)"
                       inkscape:connector-curvature="0"
                       id="path4003"
                       d="m 3038.3489,1119.9405 c -45.5198,-67.894 -41.491,-160.69164 -37.5211,-242.33653 2.1281,-43.76758 7.8742,-91.18436 32.6227,-127.3457 22.9831,-33.58183 60.3715,-59.10653 99.2712,-71.05545 30.9786,-9.51578 65.1035,-2.09507 97.1906,2.44816 20.6969,2.93049 40.9401,8.96538 60.6643,15.8867 18.8079,6.59976 37.2857,14.49358 54.628,24.31898 35.1779,19.93036 69.6814,42.14321 99.2726,69.69436 31.0006,28.86334 62.3858,60.12082 80.2443,98.52918 20.2634,43.5807 26.1037,93.61443 26.803,141.6706 0.5779,39.7164 3.0201,84.4468 -18.7355,117.6796 -20.0328,30.6012 -56.4415,52.5373 -92.4126,59.1575 -61.5946,11.3361 -133.8927,-0.6669 -183.9377,-38.3219 -46.5451,-35.0216 -50.9334,-129.7125 -81.6386,-154.505 -60.2658,-48.66073 27.7785,146.9879 -24.4765,171.7834 -39.3903,18.6911 -87.6949,-31.39 -111.9747,-67.6039 z"
                       style="fill:#ffcc00;fill-opacity:1;stroke:none" />
                    <path
                       style="fill:#00aa44;stroke:#00aa44;stroke-width:1.3349514px;stroke-linecap:butt;stroke-linejoin:miter;stroke-opacity:1"
                       d="m 2409.5317,477.89135 c 11.3022,-16.64768 44.2574,-23.92865 60.3649,0.15772 26.9598,25.76094 35.5875,48.86722 20.5553,66.56938 -12.4977,14.71746 -42.1714,3.99619 -57.3834,-7.89491 -16.6409,-13.00813 -35.4006,-41.35701 -23.5368,-58.83219 z"
                       id="path4164"
                       inkscape:connector-curvature="0"
                       sodipodi:nodetypes="acaaa"
                       inkscape:transform-center-y="25.067249" />
                    <path
                       sodipodi:nodetypes="acaaa"
                       inkscape:connector-curvature="0"
                       id="path4166"
                       d="m 2250.8741,465.95533 c -0.3587,-20.11855 22.3759,-45.06238 49.4213,-34.66262 36.8789,5.51355 57.2468,19.42342 55.1651,42.55354 -1.7306,19.23014 -32.1593,27.5713 -51.4439,26.62131 -21.0963,-1.03922 -52.7657,-13.39372 -53.1425,-34.51223 z"
                       style="fill:#ff6600;stroke:#ff6600;stroke-width:1.3349514px;stroke-linecap:butt;stroke-linejoin:miter;stroke-opacity:1"
                       inkscape:transform-center-y="-21.173999"
                       inkscape:transform-center-x="7.5744455" />
                    <path
                       inkscape:transform-center-y="25.067249"
                       sodipodi:nodetypes="acaaa"
                       inkscape:connector-curvature="0"
                       id="path4179"
                       d="m 2524.8848,588.22912 c 11.3022,-16.64768 44.2574,-23.92865 60.3649,0.15772 26.9598,25.76094 35.5875,48.86722 20.5553,66.56938 -12.4977,14.71746 -42.1714,3.99619 -57.3834,-7.89491 -16.6409,-13.00813 -35.4006,-41.35701 -23.5368,-58.83219 z"
                       style="fill:#0055d4;stroke:#2a7fff;stroke-width:1.3349514px;stroke-linecap:butt;stroke-linejoin:miter;stroke-opacity:1" />
                    <path
                       style="fill:#ff80e5;stroke:#ff80e5;stroke-width:1.3349514px;stroke-linecap:butt;stroke-linejoin:miter;stroke-opacity:1"
                       d="m 2628.8076,711.99457 c -17.788,-9.40614 -50.3106,-0.38739 -53.2461,28.43946 -11.7363,35.39375 -8.5244,59.84822 13.0525,68.43708 17.939,7.14071 39.1233,-16.24089 46.9852,-33.8759 8.6004,-19.29157 11.8803,-53.12687 -6.7916,-63.00064 z"
                       id="path4181"
                       inkscape:connector-curvature="0"
                       sodipodi:nodetypes="acaaa"
                       inkscape:transform-center-y="23.044238"
                       inkscape:transform-center-x="-12.005254" />
                    <path
                       style="fill:#ffffff;stroke:#ffffff;stroke-width:1.3349514px;stroke-linecap:butt;stroke-linejoin:miter;stroke-opacity:1"
                       d="m 2391.2532,777.60608 c -15.2371,-22.62689 -5.7679,-75.38314 23.0369,-78.52782 35.3076,-11.99283 66.9939,10.88488 73.5454,37.63227 4.5935,18.75362 -15.9566,39.2401 -33.5341,47.2298 -19.2286,8.74016 -51.2503,11.1855 -63.0482,-6.33425 z"
                       id="path4183"
                       inkscape:connector-curvature="0"
                       sodipodi:nodetypes="acaaa"
                       inkscape:transform-center-y="11.839233"
                       inkscape:transform-center-x="-23.125463" />
                  </g>
                </g>
              </g>
            </g>
          </g>
        </g>
      </g>
    </g>
  </g>
</svg>
